<svg width="48" height="48" viewBox="0 0 48 48" fill="none" xmlns="http://www.w3.org/2000/svg">
    <path fill-rule="evenodd" clip-rule="evenodd" d="M24.6112 6.03055C13.016 5.38841 3.66669 15.003 4.55919 26.5258C4.62317 27.3517 4.00546 28.0732 3.17951 28.1371C2.35356 28.2011 1.63213 27.5834 1.56815 26.7574C0.53451 13.4124 11.3953 2.26091 24.8337 3.03834L24.8838 3.04124L25.8497 3.16232C36.7014 3.83482 45.4565 12.5137 46.3592 23.3767L46.3613 23.4014L46.4808 25.2023L46.4812 25.2082C46.7848 29.3648 43.405 32.765 39.3857 32.61L39.3601 32.609C36.569 32.4535 34.1159 30.5901 33.2016 27.8396L33.1927 27.8128L31.9883 23.9472L31.9864 23.9409C30.7522 19.9188 26.8518 17.3489 22.6425 17.8625C18.5134 18.3812 15.2451 21.8004 15.0421 25.8707L15.0412 25.8894C14.8217 29.4114 15.687 34.3093 19.2905 40.3707C19.7138 41.0828 19.4797 42.0032 18.7676 42.4265C18.0555 42.8499 17.1351 42.6158 16.7118 41.9037C12.8494 35.4069 11.7861 29.9196 12.0463 25.7119C12.3297 20.1236 16.7679 15.5754 22.2717 14.8856L22.2762 14.885C27.9429 14.192 33.1957 17.6603 34.8535 23.0578L34.8544 23.0609L36.0526 26.9056C36.5854 28.4923 37.9777 29.5218 39.5142 29.6127C41.7516 29.6914 43.6632 27.7826 43.4889 25.4234L43.4881 25.4124L43.3685 23.6131C42.5807 14.2044 34.9806 6.71261 25.6214 6.15397L25.5726 6.15106L24.6112 6.03055ZM22.2168 8.83893C30.2803 8.17709 37.8013 13.3446 40.0438 21.2811C40.269 22.0783 39.8054 22.9072 39.0082 23.1324C38.2109 23.3577 37.3821 22.894 37.1568 22.0968C35.3037 15.5383 29.093 11.2839 22.4606 11.829L22.4568 11.8293C15.6092 12.3743 10.1514 17.8288 9.49593 24.7299L9.49164 24.775L9.48517 24.8164L9.4844 24.8216L9.47937 24.8579C9.47461 24.8934 9.46728 24.9513 9.45861 25.0301C9.44126 25.1879 9.41858 25.4296 9.4004 25.7446C9.36402 26.3752 9.3459 27.2966 9.42381 28.4258C9.57985 30.6875 10.1192 33.7576 11.6477 36.9934C12.0016 37.7425 11.6812 38.6365 10.9321 38.9904C10.1831 39.3442 9.289 39.0238 8.93516 38.2748C7.21116 34.6251 6.60615 31.1722 6.43092 28.6323C6.34319 27.3607 6.36271 26.3115 6.40538 25.5718C6.42674 25.2017 6.45393 24.9083 6.47658 24.7023C6.48791 24.5993 6.4981 24.518 6.50588 24.4599L6.5129 24.4094C7.31887 16.108 13.8993 9.50183 22.2168 8.83893Z" fill="#EAE7E4"/>
    <path fill-rule="evenodd" clip-rule="evenodd" d="M22.8543 24.1542C24.2626 23.5596 25.9956 24.3584 26.4884 25.9571ZM26.4884 25.9571C26.5232 26.0913 26.5603 26.2364 26.6 26.3919C27.3886 29.4774 29.218 36.6354 35.0609 43.3315C35.6056 43.9557 36.5531 44.0201 37.1773 43.4755C37.8015 42.9308 37.866 41.9833 37.3213 41.3591C31.9564 35.2107 30.2746 28.6461 29.4994 25.6202C29.4586 25.4612 29.4204 25.3119 29.3843 25.173L29.3774 25.1468L29.3697 25.1207C28.4071 21.9033 24.8498 20.0553 21.6874 21.3905C18.9068 22.5646 18.0009 25.068 18.0002 26.9985C17.9967 28.7383 18.4925 30.7277 19.1614 32.6486C19.839 34.5945 20.7355 36.5845 21.6192 38.3595C22.5049 40.1382 23.3892 41.7235 24.0514 42.8635C24.3829 43.4341 24.6598 43.8948 24.8546 44.2142C24.952 44.3739 25.029 44.4984 25.0821 44.5837L25.1435 44.6819L25.16 44.7081L25.1664 44.7182C25.1664 44.7182 25.1666 44.7186 26.4336 43.9156L25.1664 44.7182C25.6098 45.4179 26.5368 45.6261 27.2366 45.1826C27.9362 44.7392 28.144 43.8126 27.7007 43.1128L27.6971 43.1072L27.6838 43.086L27.6291 42.9984C27.5804 42.9203 27.5082 42.8035 27.4157 42.6519C27.2307 42.3486 26.9649 41.9064 26.6454 41.3565C26.0056 40.2552 25.1541 38.7282 24.3048 37.0223C23.4535 35.3128 22.6158 33.4461 21.9946 31.6621C21.3649 29.8538 20.9975 28.2406 21.0002 27.0035L21.0002 27.0004C21.0003 25.9312 21.47 24.7388 22.8543 24.1542" fill="#EAE7E4"/>
</svg>
